<svg xmlns="http://www.w3.org/2000/svg" width="122" height="32" fill="none"><path fill="#BD00FF" d="M70.758 0v3.616l6.989 2.73-6.99 2.599v3.722l11.97-4.848V4.82L70.757 0z"/><path fill="#000" d="M112.348 23.083h5.249c-.081-2.062-1.018-2.945-2.57-2.945-1.233 0-2.357.669-2.679 2.945zM115.134 32c-4.044 0-6.802-2.41-6.802-7.07v-.266c0-4.687 2.918-7.258 6.666-7.258 3.482 0 6.401 1.954 6.401 6.588v1.687h-9.104c.162 2.517 1.231 3.481 2.919 3.481 1.499 0 2.302-.803 2.571-1.82h3.614c-.427 2.65-2.597 4.658-6.265 4.658zm-16.15-14.3h3.91v2.57c.83-1.874 2.143-2.757 4.204-2.757v3.855c-2.651 0-4.204.803-4.204 3.133v7.204h-3.91V17.701zm-2.838 14.005h-3.911v-2.062c-.67 1.34-1.981 2.357-4.071 2.357-2.516 0-4.365-1.527-4.365-4.819v-9.48h3.937v8.89c0 1.607.642 2.357 2.035 2.357 1.366 0 2.464-.857 2.464-2.598v-8.649h3.91v14.005zM78.737 13.47v4.23h2.678v2.917h-2.678v6.642c0 1.046.482 1.527 1.392 1.527.563 0 .991-.08 1.366-.24v3.051a7.956 7.956 0 0 1-2.196.294c-3.052 0-4.5-1.391-4.5-4.23v-7.044h-1.633v-2.916H74.8v-2.626l3.937-1.606zM59.053 17.7h3.91v2.089c.697-1.313 2.089-2.384 4.231-2.384 2.544 0 4.231 1.527 4.231 4.927v9.373h-3.91v-8.784c0-1.633-.669-2.356-2.088-2.356-1.366 0-2.464.83-2.464 2.598v8.542h-3.91V17.701zM47.59 23.084h5.249c-.08-2.062-1.018-2.945-2.57-2.945-1.232 0-2.357.669-2.679 2.945zM50.376 32c-4.044 0-6.802-2.41-6.802-7.07v-.266c0-4.687 2.919-7.258 6.668-7.258 3.48 0 6.4 1.954 6.4 6.588v1.687h-9.105c.16 2.517 1.232 3.481 2.918 3.481 1.5 0 2.304-.803 2.572-1.82h3.615c-.43 2.65-2.598 4.658-6.266 4.658zM35.7 32c-3.883 0-6.694-2.41-6.694-7.15v-.186c0-4.74 2.998-7.258 6.72-7.258 3.187 0 5.812 1.607 6.134 5.275h-3.75c-.241-1.365-.937-2.248-2.303-2.248-1.66 0-2.812 1.31-2.812 4.07v.427c0 2.84 1.018 4.125 2.84 4.125 1.338 0 2.328-.991 2.543-2.517h3.561C41.671 29.723 39.502 32 35.7 32zm-14.57 0c-3.882 0-6.694-2.41-6.694-7.15v-.186c0-4.74 3-7.258 6.721-7.258 3.187 0 5.812 1.607 6.134 5.275h-3.75c-.241-1.365-.937-2.248-2.303-2.248-1.661 0-2.812 1.31-2.812 4.07v.427c0 2.84 1.018 4.125 2.84 4.125 1.338 0 2.328-.991 2.543-2.517h3.561C27.102 29.723 24.933 32 21.13 32zM8.356 27.046v-1.338H6.8c-1.927 0-2.918.535-2.918 1.793v.134c0 .964.59 1.634 1.901 1.634 1.34 0 2.57-.75 2.57-2.223zM4.605 32C2.09 32 0 30.715 0 27.875v-.159c0-3.456 2.999-4.58 6.615-4.58h1.74v-.668c0-1.393-.616-2.25-2.062-2.25-1.312 0-2.008.75-2.116 1.82H.428c.268-3.105 2.731-4.632 6.053-4.632 3.373 0 5.784 1.446 5.784 4.927v9.373h-3.83v-1.608C7.765 31.117 6.481 32 4.605 32z"/></svg>