<svg xmlns="http://www.w3.org/2000/svg" width="66" height="32" fill="none"><path fill="#645FAA" fill-rule="evenodd" d="M39.545 1.878c.49.986.201 2.281-.308 3.168l-3.954 8.893-.033.04-1.43-9.02c-.114-.866.813-1.236 1.356-1.652-.027-.128-.168-.12-.255-.181l-1.336-.014-.04-.04A3.06 3.06 0 0 1 35.176.375c1.067-.617 2.57-.45 3.496.343.376.335.692.724.873 1.161z" clip-rule="evenodd"/><path fill="#C9234A" fill-rule="evenodd" d="M32.264 1.569c.321.597.51 1.275.396 2.026l-1.61 10.33c.006.014-.008.027-.02.034l-.418-.832-4.04-9.021c-.375-1.161-.026-2.376.82-3.209.851-.865 2.254-1.1 3.368-.63a3.35 3.35 0 0 1 1.504 1.302z" clip-rule="evenodd"/><path fill="#0089CF" fill-rule="evenodd" d="M45.39 5.918c.544.927.423 2.33-.181 3.189-.375.604-.993.905-1.516 1.301l-8.37 5.746h-.02l.094-.276 4.437-10.013c.664-1.182 1.932-1.778 3.275-1.598.919.169 1.838.766 2.281 1.651z" clip-rule="evenodd"/><path fill="#F36F21" fill-rule="evenodd" d="m26.377 5.865 4.618 10.288h-.074l-9.31-6.416c-.945-.798-1.334-1.993-1.013-3.202.242-.905.994-1.75 1.887-2.086 1.462-.537 3.114.033 3.892 1.416z" clip-rule="evenodd"/><path fill="#0DB14B" fill-rule="evenodd" d="M47.82 13.18c.463.98.282 2.322-.382 3.154-.658.8-1.537 1.236-2.572 1.209l-9.925.007 8.315-5.786c.813-.523 2.047-.617 2.933-.194.685.268 1.33.939 1.631 1.61z" clip-rule="evenodd"/><path fill="#FDB913" fill-rule="evenodd" d="M18.43 13.18c-.463.98-.281 2.322.383 3.154.658.8 1.537 1.236 2.57 1.209l9.928.007-8.316-5.786c-.812-.523-2.047-.617-2.934-.194-.684.268-1.329.939-1.63 1.61z" clip-rule="evenodd"/><path fill="#000" fill-rule="evenodd" d="M15.387 31.062a3.828 3.828 0 0 1-3.824-3.824 3.828 3.828 0 0 1 3.824-3.822 3.828 3.828 0 0 1 3.824 3.822 3.828 3.828 0 0 1-3.824 3.824zm0-8.584a4.765 4.765 0 0 0-4.76 4.76A4.767 4.767 0 0 0 15.387 32a4.767 4.767 0 0 0 4.76-4.762 4.765 4.765 0 0 0-4.76-4.76zm41.04 4.822c-.256-.135-1.808-.935-2.032-1.051-.815-.415-1.104-.785-1.104-1.409 0-.865.712-1.425 1.814-1.425.648 0 1.274.285 1.64.491a.472.472 0 0 0 .696-.41.467.467 0 0 0-.234-.405c-.462-.258-1.251-.613-2.102-.613-1.62 0-2.751.972-2.751 2.362 0 1.25.82 1.84 1.625 2.25.224.114 1.795.924 2.031 1.048.62.325.964.813.964 1.373 0 .753-.637 1.551-1.816 1.551-1.146 0-2.036-.769-2.283-1.005l-.072-.07-.694.63.082.081c.307.306 1.432 1.302 2.967 1.302 1.722 0 2.751-1.266 2.751-2.489 0-.913-.54-1.72-1.482-2.212zM5.626 23.416a3.8 3.8 0 0 1 2.704 1.119c.171.17.493.17.662 0a.456.456 0 0 0 .137-.33.458.458 0 0 0-.137-.331l-.056-.06a4.739 4.739 0 0 0-3.31-1.335 4.764 4.764 0 0 0-4.759 4.76 4.766 4.766 0 0 0 4.76 4.76 4.742 4.742 0 0 0 3.502-1.542l-.662-.663a3.815 3.815 0 0 1-2.84 1.268 3.828 3.828 0 0 1-3.824-3.824 3.828 3.828 0 0 1 3.823-3.822zm32.269 0c1.02 0 1.982.397 2.703 1.119.172.17.494.17.662 0a.457.457 0 0 0 .139-.33.46.46 0 0 0-.139-.331l-.056-.06a4.74 4.74 0 0 0-3.31-1.335 4.765 4.765 0 0 0-4.76 4.76 4.766 4.766 0 0 0 4.76 4.76 4.745 4.745 0 0 0 3.504-1.542l-.663-.663a3.812 3.812 0 0 1-2.84 1.268 3.828 3.828 0 0 1-3.824-3.824 3.828 3.828 0 0 1 3.824-3.822zm-8.063-.937c-.176 0-.314.113-.39.26-.077.146-2.801 6.884-2.801 6.884s-2.724-6.738-2.801-6.884c-.076-.147-.214-.26-.39-.26-.206 0-.36.15-.415.34-.054.192-1.591 8.673-1.591 8.673a.423.423 0 1 0 .83.166l1.33-7.255s2.568 6.344 2.643 6.496c.076.15.215.267.394.267.178 0 .318-.117.393-.267.076-.152 2.643-6.496 2.643-6.496l1.384 7.544h.859s-1.62-8.936-1.674-9.127c-.054-.191-.209-.341-.414-.341zm15.508 5.022 1.415-3.48 1.417 3.48H45.34zm1.415-5.023c-.178 0-.315.116-.393.267-.076.151-3.525 8.667-3.525 8.667a.422.422 0 1 0 .783.32l1.339-3.294h3.594l1.428 3.509h.912s-3.67-9.05-3.745-9.202c-.076-.151-.214-.267-.393-.267zm18.53.519a.47.47 0 0 0-.468-.468h-5.3a.468.468 0 0 0 0 .936h2.221v8.482h.858v-8.482h2.22a.47.47 0 0 0 .47-.468z" clip-rule="evenodd"/></svg>