<svg xmlns="http://www.w3.org/2000/svg" width="98" height="34" fill="none"><path fill="#fff" d="M49.392 6.396C28.098 3.88 18.17 2.816 2.825 1.002c-.52 0-.984-.085-.909.767 3.308 11.327 3.788 13.198 8.09 27.873.922 2.653 2.43 3.357 3.89 3.357h35.383L84.654 33c1.458 0 2.966-.704 3.889-3.357 4.302-14.676 4.781-16.546 8.09-27.873.074-.851-.389-.767-.909-.767C80.38 2.816 70.687 3.879 49.392 6.396z"/><path stroke="#fff" stroke-miterlimit="3.864" stroke-width="2.018" d="M49.392 6.396C28.098 3.88 18.17 2.816 2.825 1.002c-.52 0-.984-.085-.909.767 3.308 11.327 3.788 13.198 8.09 27.873.922 2.653 2.43 3.357 3.89 3.357h35.383L84.654 33c1.458 0 2.966-.704 3.889-3.357 4.302-14.676 4.781-16.546 8.09-27.873.074-.851-.389-.767-.909-.767C80.38 2.816 70.687 3.879 49.392 6.396z"/><path fill="#fff" d="M49.27 7.978c19.21-2.154 30.65-3.615 44.417-5.2.495-.049.94-.322.71.482-1.898 6.7-2.49 8.787-5.93 20.648-.67 2.155-1.65 1.887-3.182 1.894-12.93 0-21.97-.004-36.015-.007-14.047.003-23.077.006-36.007.006-1.53-.007-2.513.261-3.181-1.892C6.639 12.046 6.049 9.959 4.15 3.259c-.23-.803.216-.532.711-.482C18.628 4.362 30.06 5.823 49.27 7.978z"/><path stroke="#fff" stroke-miterlimit="3.864" stroke-width="2.018" d="M49.27 7.978c19.21-2.154 30.65-3.615 44.417-5.2.495-.049.94-.322.71.482-1.898 6.7-2.49 8.787-5.93 20.648-.67 2.155-1.65 1.887-3.182 1.894-12.93 0-21.97-.004-36.015-.007-14.047.003-23.077.006-36.007.006-1.53-.007-2.513.261-3.181-1.892C6.639 12.046 6.049 9.959 4.15 3.259c-.23-.803.216-.532.711-.482C18.628 4.362 30.06 5.823 49.27 7.978z"/><path fill="#fff" fill-rule="evenodd" d="M15.524 28.19h.226c.614 0 1.049.371 1.049 1.029 0 .718-.489 1.03-1.06 1.03h-.215v-2.06zm-.956 2.868h1.357c1.02 0 1.869-.805 1.869-1.84 0-1.033-.845-1.838-1.868-1.838h-1.358v3.678z" clip-rule="evenodd"/><path stroke="#fff" stroke-miterlimit="3.864" stroke-width=".122" d="M15.524 28.19h.226c.614 0 1.049.371 1.049 1.029 0 .718-.489 1.03-1.06 1.03h-.215v-2.06zm-.956 2.868h1.357c1.02 0 1.869-.805 1.869-1.84 0-1.033-.845-1.838-1.868-1.838h-1.358v3.678z"/><path fill="#fff" fill-rule="evenodd" d="M24.631 28.185c.57 0 1.04.463 1.04.97 0 .634-.47 1.098-1.04 1.098-.57 0-1.04-.463-1.04-1.098 0-.507.47-.97 1.04-.97zm0-.927c-1.059 0-2.034.78-2.034 1.892 0 1.191.853 2.03 2.034 2.03 1.18 0 2.034-.839 2.034-2.03 0-1.111-.976-1.892-2.034-1.892z" clip-rule="evenodd"/><path stroke="#fff" stroke-miterlimit="3.864" stroke-width=".122" d="M24.631 28.185c.57 0 1.04.463 1.04.97 0 .634-.47 1.098-1.04 1.098-.57 0-1.04-.463-1.04-1.098 0-.507.47-.97 1.04-.97zm0-.927c-1.059 0-2.034.78-2.034 1.892 0 1.191.853 2.03 2.034 2.03 1.18 0 2.034-.839 2.034-2.03 0-1.111-.976-1.892-2.034-1.892z"/><path fill="#fff" fill-rule="evenodd" d="M33.946 27.33v1.936c0 .479-.035 1.001-.649 1.001s-.649-.522-.649-1V27.33h-.956v2.068c0 .473.02.941.386 1.297.307.303.79.41 1.22.41.429 0 .911-.107 1.219-.41.365-.356.385-.824.385-1.297V27.33h-.956z" clip-rule="evenodd"/><path stroke="#fff" stroke-miterlimit="3.864" stroke-width=".122" d="M33.946 27.33v1.936c0 .479-.035 1.001-.649 1.001s-.649-.522-.649-1V27.33h-.956v2.068c0 .473.02.941.386 1.297.307.303.79.41 1.22.41.429 0 .911-.107 1.219-.41.365-.356.385-.824.385-1.297V27.33h-.956z"/><path fill="#fff" d="M41.936 29.005v.75h.694c-.038.425-.355.64-.77.64-.63 0-.971-.58-.971-1.151 0-.561.327-1.16.956-1.16.386 0 .665.233.795.585l.907-.382c-.316-.688-.901-1.03-1.658-1.03-1.185 0-1.995.786-1.995 1.981 0 1.156.805 1.941 1.96 1.941.616 0 1.158-.219 1.518-.721.327-.46.366-.917.376-1.454h-1.812z"/><path stroke="#fff" stroke-miterlimit="3.864" stroke-width=".122" d="M41.936 29.005v.75h.694c-.038.425-.355.64-.77.64-.63 0-.971-.58-.971-1.151 0-.561.327-1.16.956-1.16.386 0 .665.233.795.585l.907-.382c-.316-.688-.901-1.03-1.658-1.03-1.185 0-1.995.786-1.995 1.981 0 1.156.805 1.941 1.96 1.941.616 0 1.158-.219 1.518-.721.327-.46.366-.917.376-1.454h-1.812z"/><path fill="#fff" fill-rule="evenodd" d="M49.718 28.8v-1.42h-.956v3.679h.956V29.55h1.38v1.508h.956v-3.68h-.956v1.42h-1.38z" clip-rule="evenodd"/><path stroke="#fff" stroke-miterlimit="3.864" stroke-width=".122" d="M49.718 28.8v-1.42h-.956v3.679h.956V29.55h1.38v1.508h.956v-3.68h-.956v1.42h-1.38z"/><path fill="#fff" fill-rule="evenodd" d="M57.254 31.059h.956v-2.254h.01l1.751 2.254h.957v-3.68h-.957v2.25h-.01l-1.751-2.25h-.956v3.68z" clip-rule="evenodd"/><path stroke="#fff" stroke-miterlimit="3.864" stroke-width=".122" d="M57.254 31.059h.956v-2.254h.01l1.751 2.254h.957v-3.68h-.957v2.25h-.01l-1.751-2.25h-.956v3.68z"/><path fill="#fff" fill-rule="evenodd" d="M68.358 27.38v1.937c0 .478-.034 1-.649 1-.614 0-.649-.522-.649-1V27.38h-.956v2.069c0 .473.02.94.386 1.297.308.303.79.41 1.22.41.429 0 .911-.107 1.219-.41.365-.356.385-.824.385-1.297v-2.07h-.956z" clip-rule="evenodd"/><path stroke="#fff" stroke-miterlimit="3.864" stroke-width=".122" d="M68.358 27.38v1.937c0 .478-.034 1-.649 1-.614 0-.649-.522-.649-1V27.38h-.956v2.069c0 .473.02.94.386 1.297.308.303.79.41 1.22.41.429 0 .911-.107 1.219-.41.365-.356.385-.824.385-1.297v-2.07h-.956z"/><path fill="#fff" d="M75.956 28.19h1.075v-.81h-3.135v.81h1.075v2.869h.985v-2.87z"/><path stroke="#fff" stroke-miterlimit="3.864" stroke-width=".122" d="M75.956 28.19h1.075v-.81h-3.135v.81h1.075v2.869h.985v-2.87z"/><path fill="#fff" fill-rule="evenodd" d="M84.066 27.585a2.509 2.509 0 0 0-1.15-.302c-.737 0-1.269.488-1.269 1.234 0 .712.394.867.995 1.039.205.058.58.15.58.42 0 .258-.24.37-.463.37-.327 0-.61-.17-.848-.38l-.41.77c.375.264.829.42 1.292.42.372 0 .757-.103 1.044-.346.293-.25.381-.625.381-.991 0-.595-.396-.854-.907-1.004l-.244-.075c-.166-.053-.425-.136-.425-.35 0-.205.234-.307.41-.307.233 0 .458.097.633.243l.38-.74z" clip-rule="evenodd"/><path stroke="#fff" stroke-miterlimit="3.864" stroke-width=".122" d="M84.066 27.585a2.509 2.509 0 0 0-1.15-.302c-.737 0-1.269.488-1.269 1.234 0 .712.394.867.995 1.039.205.058.58.15.58.42 0 .258-.24.37-.463.37-.327 0-.61-.17-.848-.38l-.41.77c.375.264.829.42 1.292.42.372 0 .757-.103 1.044-.346.293-.25.381-.625.381-.991 0-.595-.396-.854-.907-1.004l-.244-.075c-.166-.053-.425-.136-.425-.35 0-.205.234-.307.41-.307.233 0 .458.097.633.243l.38-.74z"/><path fill="#fff" d="M31.743 9.61c7.324 0 16.24-.001 16.624.003 1.16.01 1.687-.515 1.898-.704.212-.188.454-.179.447.041-.002.095-1.256 3.002-2.992 2.998-1.064-.002-9.06-.003-15.99-.003.266-.318.426-.728.426-1.174 0-.44-.155-.845-.413-1.16zm6.317 6.913c-.136.271-1.192 2.895-1.192 2.895-.284.725.132 1.093.437 1.17.683.175 1.34-.33 2.05-2.197 1.128-2.965-.952-2.555-1.295-1.868zm-7.463 2.427c1.011.45.605 1.855-.102 2.025-.325.256 1.04.924 1.64-.45.611-1.402-.169-2.764-.26-3.095-.246.203-.672.73-1.278 1.52zm8.517 2.277c1.707-.529 3.154-2.763 3.451-3.505.657-1.754 1.216-3.114 1.216-3.114l2.043-.006s-1.46 3.495-2.09 5.27c-.6 1.693 1.094.27 1.78-1.611.601-1.619 1.37-3.596 1.37-3.596l2.118-.004s-2.458 6.139-2.71 6.67c.79-.214 1.783.395 1.686.69-.346 1.056-.559-.523-2.016-.067-.802 1.945-2.588 3.643-3.99 3.433-1.817-.27-.757-2.747 2.306-3.644l.266-.74c-1.574 1.308-3.09.515-2.732-1.025-1.321 1.607-2.873 1.835-3.86 1.764-.742.11-1.376-.208-1.706-.699a186.445 186.445 0 0 1-1.19 3.01h-2.028l1.037-2.65a4.312 4.312 0 0 1-2.39.587c-1.343.368-2.169-.53-2.406-1.185-1.498 1.985-3.153 1.273-3.379.055-.64.664-1.34 1.163-1.975 1.14-1.545-.058-1.167-2.37-.898-3.145.699-2.016 1.457-2.823.04-2.868-.236-.007-1.936 6.587-5.025 6.874-2.863.264-1.76-2.015-1.286-3.319.76-2.088 1.565-3.13 1.161-3.908-.313-.604-2.05.646-2.583 1.979-.688 1.717-2.078 5.304-2.078 5.304l-2.68.058s2.21-5.59 4.359-11.214c.7-1.833-.368-1.886-1.205-1.837-.689.041-.418-.57.087-.608 2.573-.196 3.507-.158 3.817.045.529.345.504 1.056.409 1.22-.473 1.231-1.342 3.411-1.46 3.755-.375 1.101.404.044.632-.243.229-.285 1.85-2.11 2.173-2.541.336-.449 1.823-1.94 2.82-1.94h6.707a1.827 1.827 0 0 0 .013 2.333c-4.167 0-7.433.001-7.668.003-.518.003-1.68.642-2.56 1.7-.757.915.23.584.23.584 1.477-.143 2.852-.475.495 4.68-2.255 4.933 1.111 2.624 3.08-3.344.07-.218-.506-.5-.525-.91-.026-.522-.182-1.124.733-1.124.916 0 .614.929 1.388 1.165 1.567.48 2.42-.012 1.597 1.982-.788 1.911-1.659 4.288-.629 4.002.495-.137.78-.5.964-.832 1.087-2.963 2.02-5.253 2.02-5.253h2.023l-2.209 5.572c-.51 1.286.507.564 1.262-.263.088-.678.593-.933.746-.957.801-1.158 3.37-4.79 3.37-4.79s.197.142.032.402c-.22.346.19 2.06.37 2.603.285.867.743 3.005-.459 3.987-.241.198-.473.36-.694.488a4.226 4.226 0 0 0 1.804-.807l2.439-6.23h2.011s-.087.19-.201.484c.578-.442 1.295-.678 1.845-.531.562.148 2.42.292.33 4.571-.496 1.017-1.05 1.689-1.598 2.1zm3.308 2.916c.66-.432 1.116-.899 1.518-1.64-.491.104-1.333.565-1.77.976-.572.536-.292 1.02.252.664zM29.223 10.771a1.1 1.1 0 1 1 2.199 0 1.1 1.1 0 0 1-2.199 0zm37.188 7.613c1.032.022 2.273-.604 2.544-1.071.27-.467.238-1.382-.45-1.416-.582-.028-1.738.504-2.094 2.487zm20.513 1.734c-1.996 2.7-4.947 2.36-5.647-.13-.486.986-1.192 1.957-2.488 2.071-1.557.137-1.717-1.401-1.545-2.26.171-.858.439-1.201 1.067-2.975.442-1.25-.86-.612-1.6.594-.533 1.439-1.739 4.648-1.739 4.648s-.623-.047-2.014-.064c.172-.858 1.321-3.378 1.95-5.152.45-1.268-.898-.593-1.632.648-.022.041-.046.08-.07.115l-1.799 4.453h-2.1l.658-1.663c-.21.229-.45.448-.734.648-2.694 1.905-3.977.527-4.395-.824-.77.95-1.706 1.803-2.532 1.773-1.544-.058-1.166-2.37-.898-3.143.698-2.018 1.457-2.824.04-2.869-.236-.008-1.936 6.586-5.025 6.873-2.863.264-1.76-2.014-1.286-3.319.76-2.087 1.566-3.13 1.162-3.908-.314-.603-2.05.647-2.584 1.979a729.855 729.855 0 0 0-2.078 5.306l-2.68.056s2.211-5.589 4.36-11.213c.7-1.834-.368-1.886-1.205-1.837-.689.04-.418-.57.087-.61 2.573-.195 3.507-.156 3.816.046.528.345.504 1.056.41 1.221-.473 1.231-1.343 3.411-1.46 3.754-.374 1.102.403.044.632-.243.23-.285 1.85-2.109 2.172-2.54.336-.45 1.824-1.94 2.82-1.94.876 0 25.528-.007 26.172 0 1.159.012 1.685-.514 1.897-.703.212-.188.453-.18.448.041-.002.094-1.257 3.001-2.993 2.998-1.896-.004-25.821-.005-26.472 0-.517.002-1.68.642-2.559 1.7-.758.915.23.583.23.583 1.476-.142 2.85-.474.495 4.68-2.256 4.933 1.11 2.624 3.08-3.344.07-.218-.506-.5-.526-.909-.025-.523-.182-1.124.733-1.124.916 0 .614.928 1.388 1.165 1.569.48 2.421-.012 1.598 1.982-.788 1.91-1.659 4.288-.629 4.002.834-.232 1.074-1.102 1.227-1.393a2.228 2.228 0 0 1 .004-.23c.143-1.976 1.301-3.675 2.287-4.105 2.361-1.032 3.271.283 3.194 1.537-.095 1.538-1.818 2.568-3.764 2.624-.035-.028-.04-.008 0 .286.305 2.205 2.816 1.004 4.156-.482l1.725-4.35 2.163-.011-.526 1.302c1.597-1.914 3.322-1.377 3.176.261l.062-.083c1.831-2.402 3.922-1.483 3.204.688-.105.318-1.146 3.277-1.146 3.277s-.322.993.308.993c.543 0 1.286-.958 1.617-1.86l-.004-.078c-.099-1.96 1.115-3.653 2.095-4.08 2.35-1.026 3.354.282 3.347 1.528-.008 1.529-1.707 2.553-3.688 2.61-.038-.029-.043-.008.016.284.525 2.621 3.15.9 3.537.429.976-1.193.943-.33.486.287zm-4.066-1.73c1.052.022 2.284-.6 2.533-1.064.249-.465.163-1.375-.54-1.408-.596-.028-1.745.501-1.993 2.473z"/><path stroke="#fff" stroke-miterlimit="3.864" stroke-width="2.018" d="M39.114 21.228c1.707-.53 3.154-2.764 3.451-3.506.657-1.754 1.216-3.114 1.216-3.114l2.043-.005s-1.46 3.495-2.09 5.268c-.6 1.694 1.094.27 1.78-1.61.601-1.619 1.37-3.596 1.37-3.596l2.118-.003s-2.458 6.138-2.71 6.67c.79-.215 1.783.394 1.686.69-.346 1.055-.559-.523-2.016-.068-.802 1.945-2.588 3.644-3.99 3.434-1.817-.271-.757-2.748 2.306-3.645l.266-.74c-1.574 1.308-3.09.515-2.732-1.024-1.321 1.606-2.873 1.834-3.86 1.763-.742.111-1.376-.208-1.706-.699a185.61 185.61 0 0 1-1.19 3.01h-2.028l1.037-2.65a4.312 4.312 0 0 1-2.39.587c-1.343.368-2.169-.53-2.406-1.185-1.498 1.985-3.153 1.273-3.379.055-.64.664-1.34 1.163-1.975 1.14-1.545-.058-1.167-2.37-.898-3.145.699-2.016 1.457-2.823.04-2.868-.236-.007-1.936 6.588-5.025 6.874-2.863.264-1.76-2.015-1.286-3.319.76-2.088 1.565-3.13 1.161-3.907-.313-.605-2.05.645-2.583 1.978a702.15 702.15 0 0 0-2.078 5.304l-2.68.058s2.21-5.59 4.359-11.214c.7-1.832-.368-1.886-1.205-1.837-.689.041-.418-.57.087-.608 2.573-.196 3.507-.158 3.817.045.529.345.504 1.056.409 1.22-.473 1.232-1.342 3.411-1.46 3.755-.375 1.101.404.044.632-.243.229-.285 1.85-2.11 2.173-2.54.336-.45 1.823-1.94 2.82-1.94l6.707-.001a1.827 1.827 0 0 0 .013 2.333c-4.167 0-7.433.002-7.668.003-.518.003-1.68.643-2.56 1.7-.757.915.23.584.23.584 1.477-.143 2.852-.475.495 4.68-2.255 4.933 1.111 2.624 3.08-3.344.07-.218-.506-.5-.525-.91-.026-.522-.182-1.123.733-1.123.916 0 .614.928 1.388 1.164 1.567.48 2.42-.011 1.597 1.982-.788 1.911-1.659 4.288-.629 4.002.495-.137.78-.5.964-.832a181.796 181.796 0 0 1 2.02-5.253h2.023l-2.209 5.572c-.51 1.286.507.564 1.262-.263.088-.678.593-.933.746-.957.801-1.158 3.37-4.79 3.37-4.79s.197.142.032.402c-.22.346.19 2.06.37 2.603.285.867.743 3.005-.459 3.987-.241.198-.473.36-.694.488a4.225 4.225 0 0 0 1.804-.807l2.439-6.23h2.011s-.087.19-.201.484c.578-.442 1.295-.678 1.845-.531.562.148 2.42.292.33 4.572-.496 1.016-1.05 1.688-1.598 2.1zm3.308 2.915c.66-.432 1.116-.899 1.518-1.64-.491.104-1.333.565-1.77.976-.572.536-.292 1.02.252.664zM29.223 10.771a1.1 1.1 0 1 1 2.199 0 1.1 1.1 0 0 1-2.199 0zm37.188 7.613c1.032.022 2.273-.604 2.544-1.071.27-.467.238-1.382-.45-1.416-.582-.028-1.738.504-2.094 2.487zm20.513 1.734c-1.996 2.7-4.947 2.36-5.647-.13-.486.986-1.192 1.957-2.488 2.071-1.557.137-1.717-1.401-1.545-2.26.171-.858.439-1.201 1.067-2.975.442-1.25-.86-.611-1.6.594-.533 1.439-1.739 4.648-1.739 4.648s-.623-.047-2.014-.064c.172-.858 1.321-3.378 1.95-5.151.45-1.269-.898-.593-1.632.648a1.85 1.85 0 0 1-.07.115l-1.799 4.452h-2.1l.658-1.663c-.21.229-.45.449-.734.648-2.694 1.905-3.977.527-4.395-.824-.77.95-1.706 1.804-2.532 1.773-1.544-.058-1.166-2.37-.898-3.143.698-2.018 1.457-2.824.04-2.869-.236-.007-1.936 6.587-5.025 6.873-2.863.264-1.76-2.014-1.286-3.319.76-2.086 1.566-3.13 1.162-3.907-.314-.604-2.05.646-2.584 1.978-.688 1.717-2.078 5.306-2.078 5.306l-2.68.056s2.211-5.589 4.36-11.213c.7-1.833-.368-1.886-1.205-1.837-.689.04-.418-.57.087-.609 2.573-.196 3.507-.157 3.816.045.528.345.504 1.056.41 1.221-.473 1.231-1.343 3.411-1.46 3.754-.374 1.102.403.044.632-.243.23-.285 1.85-2.109 2.172-2.54.336-.45 1.824-1.94 2.82-1.94.876 0 25.528-.006 26.172 0 1.159.012 1.685-.514 1.897-.703.212-.188.453-.18.448.041-.002.094-1.257 3.001-2.993 2.998-1.896-.004-25.821-.005-26.472 0-.517.002-1.68.642-2.559 1.7-.758.915.23.583.23.583 1.476-.142 2.85-.474.495 4.68-2.256 4.933 1.11 2.624 3.08-3.344.07-.218-.506-.5-.526-.909-.025-.523-.182-1.124.733-1.124.916 0 .614.928 1.388 1.165 1.569.48 2.421-.012 1.598 1.982-.788 1.91-1.659 4.288-.629 4.002.834-.232 1.074-1.102 1.227-1.393a2.228 2.228 0 0 1 .004-.23c.143-1.975 1.301-3.675 2.287-4.105 2.361-1.032 3.271.284 3.194 1.537-.095 1.538-1.818 2.568-3.764 2.624-.035-.028-.04-.007 0 .286.305 2.205 2.816 1.004 4.156-.482l1.725-4.35 2.163-.011-.526 1.302c1.597-1.914 3.322-1.376 3.176.261l.062-.083c1.831-2.402 3.922-1.483 3.204.688-.105.318-1.146 3.277-1.146 3.277s-.322.993.308.993c.543 0 1.286-.958 1.617-1.86l-.004-.078c-.099-1.96 1.115-3.653 2.095-4.08 2.35-1.026 3.354.282 3.347 1.528-.008 1.529-1.707 2.553-3.688 2.61-.038-.029-.043-.007.016.284.525 2.621 3.15.9 3.537.429.976-1.193.943-.33.486.287zm-4.066-1.73c1.052.022 2.284-.6 2.533-1.064.249-.465.163-1.375-.54-1.408-.596-.028-1.745.501-1.993 2.473z"/><path stroke="#fff" stroke-miterlimit="3.864" stroke-width="2.018" d="M31.743 9.61c7.324 0 16.24-.001 16.625.003 1.16.01 1.686-.515 1.897-.704.212-.188.454-.179.447.041-.002.095-1.255 3.002-2.992 2.998-1.064-.002-9.06-.003-15.99-.003.266-.318.426-.728.426-1.174 0-.44-.155-.845-.413-1.16zm6.317 6.913c-.136.271-1.192 2.895-1.192 2.895-.284.725.132 1.093.437 1.17.683.175 1.34-.33 2.05-2.197 1.128-2.965-.952-2.555-1.295-1.868zm-7.462 2.427c1.01.45.604 1.855-.102 2.025-.326.256 1.039.924 1.639-.45.611-1.402-.168-2.764-.26-3.095-.246.203-.672.73-1.277 1.52z"/><path fill="#007550" d="M49.392 6.396C28.098 3.88 18.17 2.816 2.825 1.002c-.52 0-.984-.085-.909.767 3.308 11.327 3.788 13.198 8.09 27.873.922 2.653 2.43 3.357 3.89 3.357h35.383L84.654 33c1.458 0 2.966-.704 3.889-3.357 4.302-14.676 4.781-16.546 8.09-27.873.074-.851-.389-.767-.909-.767C80.38 2.816 70.687 3.879 49.392 6.396z"/><path fill="#fff" d="M49.27 7.978c19.21-2.154 30.65-3.615 44.417-5.2.495-.049.94-.322.71.482-1.898 6.7-2.49 8.787-5.93 20.648-.67 2.155-1.65 1.887-3.182 1.894-12.93 0-21.97-.004-36.015-.007-14.047.003-23.077.006-36.007.006-1.53-.007-2.513.261-3.181-1.892C6.639 12.046 6.049 9.959 4.15 3.259c-.23-.803.216-.532.711-.482C18.628 4.362 30.06 5.823 49.27 7.978z"/><path fill="#CE1041" d="M31.743 9.61c7.324 0 16.24-.001 16.624.003 1.16.01 1.687-.515 1.898-.704.212-.188.454-.179.447.041-.002.095-1.256 3.002-2.992 2.998-1.064-.002-9.06-.003-15.99-.003.266-.318.426-.728.426-1.174 0-.44-.155-.845-.413-1.16zm6.317 6.913c-.136.271-1.192 2.895-1.192 2.895-.284.725.132 1.093.437 1.17.683.175 1.34-.33 2.05-2.197 1.128-2.965-.952-2.555-1.295-1.868zm-7.463 2.427c1.011.45.605 1.855-.102 2.025-.325.256 1.04.924 1.64-.45.611-1.402-.169-2.764-.26-3.095-.246.203-.672.73-1.278 1.52zm8.517 2.277c1.707-.529 3.154-2.763 3.451-3.505.657-1.754 1.216-3.114 1.216-3.114l2.043-.006s-1.46 3.495-2.09 5.27c-.6 1.693 1.094.27 1.78-1.611.601-1.619 1.37-3.596 1.37-3.596l2.118-.004s-2.458 6.139-2.71 6.67c.79-.214 1.783.395 1.686.69-.346 1.056-.559-.523-2.016-.067-.802 1.945-2.588 3.643-3.99 3.433-1.817-.27-.757-2.747 2.306-3.644l.266-.74c-1.574 1.308-3.09.515-2.732-1.025-1.321 1.607-2.873 1.835-3.86 1.764-.742.11-1.376-.208-1.706-.699a186.445 186.445 0 0 1-1.19 3.01h-2.028l1.037-2.65a4.312 4.312 0 0 1-2.39.587c-1.343.368-2.169-.53-2.406-1.185-1.498 1.985-3.153 1.273-3.379.055-.64.664-1.34 1.163-1.975 1.14-1.545-.058-1.167-2.37-.898-3.145.699-2.016 1.457-2.823.04-2.868-.236-.007-1.936 6.587-5.025 6.874-2.863.264-1.76-2.015-1.286-3.319.76-2.088 1.565-3.13 1.161-3.908-.313-.604-2.05.646-2.583 1.979-.688 1.717-2.078 5.304-2.078 5.304l-2.68.058s2.21-5.59 4.359-11.214c.7-1.833-.368-1.886-1.205-1.837-.689.041-.418-.57.087-.608 2.573-.196 3.507-.158 3.817.045.529.345.504 1.056.409 1.22-.473 1.231-1.342 3.411-1.46 3.755-.375 1.101.404.044.632-.243.229-.285 1.85-2.11 2.173-2.541.336-.449 1.823-1.94 2.82-1.94h6.707a1.827 1.827 0 0 0 .013 2.333c-4.167 0-7.433.001-7.668.003-.518.003-1.68.642-2.56 1.7-.757.915.23.584.23.584 1.477-.143 2.852-.475.495 4.68-2.255 4.933 1.111 2.624 3.08-3.344.07-.218-.506-.5-.525-.91-.026-.522-.182-1.124.733-1.124.916 0 .614.929 1.388 1.165 1.567.48 2.42-.012 1.597 1.982-.788 1.911-1.659 4.288-.629 4.002.495-.137.78-.5.964-.832 1.087-2.963 2.02-5.253 2.02-5.253h2.023l-2.209 5.572c-.51 1.286.507.564 1.262-.263.088-.678.593-.933.746-.957.801-1.158 3.37-4.79 3.37-4.79s.197.142.032.402c-.22.346.19 2.06.37 2.603.285.867.743 3.005-.459 3.987-.241.198-.473.36-.694.488a4.226 4.226 0 0 0 1.804-.807l2.439-6.23h2.011s-.087.19-.201.484c.578-.442 1.295-.678 1.845-.531.562.148 2.42.292.33 4.571-.496 1.017-1.05 1.689-1.598 2.1zm3.308 2.916c.66-.432 1.116-.899 1.518-1.64-.491.104-1.333.565-1.77.976-.572.536-.292 1.02.252.664zM29.223 10.771a1.1 1.1 0 1 1 2.199 0 1.1 1.1 0 0 1-2.199 0zm37.188 7.613c1.032.022 2.273-.604 2.544-1.071.27-.467.238-1.382-.45-1.416-.582-.028-1.738.504-2.094 2.487zm20.513 1.734c-1.996 2.7-4.947 2.36-5.647-.13-.486.986-1.192 1.957-2.488 2.071-1.557.137-1.717-1.401-1.545-2.26.171-.858.439-1.201 1.067-2.975.442-1.25-.86-.612-1.6.594-.533 1.439-1.739 4.648-1.739 4.648s-.623-.047-2.014-.064c.172-.858 1.321-3.378 1.95-5.152.45-1.268-.898-.593-1.632.648-.022.041-.046.08-.07.115l-1.799 4.453h-2.1l.658-1.663c-.21.229-.45.448-.734.648-2.694 1.905-3.977.527-4.395-.824-.77.95-1.706 1.803-2.532 1.773-1.544-.058-1.166-2.37-.898-3.143.698-2.018 1.457-2.824.04-2.869-.236-.008-1.936 6.586-5.025 6.873-2.863.264-1.76-2.014-1.286-3.319.76-2.087 1.566-3.13 1.162-3.908-.314-.603-2.05.647-2.584 1.979a729.855 729.855 0 0 0-2.078 5.306l-2.68.056s2.211-5.589 4.36-11.213c.7-1.834-.368-1.886-1.205-1.837-.689.04-.418-.57.087-.61 2.573-.195 3.507-.156 3.816.046.528.345.504 1.056.41 1.221-.473 1.231-1.343 3.411-1.46 3.754-.374 1.102.403.044.632-.243.23-.285 1.85-2.109 2.172-2.54.336-.45 1.824-1.94 2.82-1.94.876 0 25.528-.007 26.172 0 1.159.012 1.685-.514 1.897-.703.212-.188.453-.18.448.041-.002.094-1.257 3.001-2.993 2.998-1.896-.004-25.821-.005-26.472 0-.517.002-1.68.642-2.559 1.7-.758.915.23.583.23.583 1.476-.142 2.85-.474.495 4.68-2.256 4.933 1.11 2.624 3.08-3.344.07-.218-.506-.5-.526-.909-.025-.523-.182-1.124.733-1.124.916 0 .614.928 1.388 1.165 1.569.48 2.421-.012 1.598 1.982-.788 1.91-1.659 4.288-.629 4.002.834-.232 1.074-1.102 1.227-1.393a2.228 2.228 0 0 1 .004-.23c.143-1.976 1.301-3.675 2.287-4.105 2.361-1.032 3.271.283 3.194 1.537-.095 1.538-1.818 2.568-3.764 2.624-.035-.028-.04-.008 0 .286.305 2.205 2.816 1.004 4.156-.482l1.725-4.35 2.163-.011-.526 1.302c1.597-1.914 3.322-1.377 3.176.261l.062-.083c1.831-2.402 3.922-1.483 3.204.688-.105.318-1.146 3.277-1.146 3.277s-.322.993.308.993c.543 0 1.286-.958 1.617-1.86l-.004-.078c-.099-1.96 1.115-3.653 2.095-4.08 2.35-1.026 3.354.282 3.347 1.528-.008 1.529-1.707 2.553-3.688 2.61-.038-.029-.043-.008.016.284.525 2.621 3.15.9 3.537.429.976-1.193.943-.33.486.287zm-4.066-1.73c1.052.022 2.284-.6 2.533-1.064.249-.465.163-1.375-.54-1.408-.596-.028-1.745.501-1.993 2.473z"/><path fill="#fff" fill-rule="evenodd" d="M86.243 27.997c.148 0 .256.015.324.044.123.051.185.152.185.301 0 .106-.038.184-.116.234a.45.45 0 0 1-.172.058.289.289 0 0 1 .205.116.327.327 0 0 1 .065.184v.087l.002.09a.21.21 0 0 0 .01.06l.009.016h-.196l-.004-.013-.002-.012-.005-.039v-.094c0-.137-.038-.229-.112-.273a.5.5 0 0 0-.233-.039h-.165v.469h-.209l-.002-1.188h.416m.225.187a.53.53 0 0 0-.252-.044l-.178-.001v.43h.189a.554.554 0 0 0 .198-.026c.082-.032.123-.094.123-.185-.001-.087-.026-.144-.08-.174zm.564 1.18a1.04 1.04 0 0 1-.766.316 1.043 1.043 0 0 1-.765-.32 1.054 1.054 0 0 1-.316-.768c0-.297.105-.552.317-.763.21-.21.463-.315.761-.314.3 0 .556.106.767.316.212.21.317.466.317.764.002.3-.104.555-.315.768zm-1.426-1.43a.904.904 0 0 0-.27.658c0 .26.091.48.271.664.181.183.4.274.66.274a.888.888 0 0 0 .657-.272.906.906 0 0 0 .271-.663.9.9 0 0 0-.272-.659.896.896 0 0 0-.659-.276.893.893 0 0 0-.658.273z" clip-rule="evenodd"/><path fill="#fff" d="M41.936 29.005v.75h.694c-.038.425-.355.64-.77.64-.63 0-.971-.58-.971-1.151 0-.561.327-1.16.956-1.16.386 0 .665.233.795.585l.907-.382c-.316-.688-.901-1.03-1.658-1.03-1.185 0-1.995.786-1.995 1.981 0 1.156.805 1.941 1.96 1.941.616 0 1.158-.219 1.518-.721.327-.46.366-.917.376-1.454h-1.812z"/><path stroke="#fff" stroke-miterlimit="3.864" stroke-width=".122" d="M41.936 29.005v.75h.694c-.038.425-.355.64-.77.64-.63 0-.971-.58-.971-1.151 0-.561.327-1.16.956-1.16.386 0 .665.233.795.585l.907-.382c-.316-.688-.901-1.03-1.658-1.03-1.185 0-1.995.786-1.995 1.981 0 1.156.805 1.941 1.96 1.941.616 0 1.158-.219 1.518-.721.327-.46.366-.917.376-1.454h-1.812z"/><path fill="#fff" d="M75.956 28.19h1.075v-.81h-3.135v.81h1.075v2.869h.985v-2.87z"/><path stroke="#fff" stroke-miterlimit="3.864" stroke-width=".122" d="M75.956 28.19h1.075v-.81h-3.135v.81h1.075v2.869h.985v-2.87z"/><path fill="#fff" fill-rule="evenodd" d="M15.524 28.19h.226c.614 0 1.049.371 1.049 1.029 0 .718-.489 1.03-1.06 1.03h-.215v-2.06zm-.956 2.868h1.357c1.02 0 1.869-.805 1.869-1.84 0-1.033-.845-1.838-1.868-1.838h-1.358v3.678z" clip-rule="evenodd"/><path stroke="#fff" stroke-miterlimit="3.864" stroke-width=".122" d="M15.524 28.19h.226c.614 0 1.049.371 1.049 1.029 0 .718-.489 1.03-1.06 1.03h-.215v-2.06zm-.956 2.868h1.357c1.02 0 1.869-.805 1.869-1.84 0-1.033-.845-1.838-1.868-1.838h-1.358v3.678z"/><path fill="#fff" fill-rule="evenodd" d="M24.631 28.185c.57 0 1.04.463 1.04.97 0 .634-.47 1.098-1.04 1.098-.57 0-1.04-.463-1.04-1.098 0-.507.47-.97 1.04-.97zm0-.927c-1.059 0-2.034.78-2.034 1.892 0 1.191.853 2.03 2.034 2.03 1.18 0 2.034-.839 2.034-2.03 0-1.111-.976-1.892-2.034-1.892z" clip-rule="evenodd"/><path stroke="#fff" stroke-miterlimit="3.864" stroke-width=".122" d="M24.631 28.185c.57 0 1.04.463 1.04.97 0 .634-.47 1.098-1.04 1.098-.57 0-1.04-.463-1.04-1.098 0-.507.47-.97 1.04-.97zm0-.927c-1.059 0-2.034.78-2.034 1.892 0 1.191.853 2.03 2.034 2.03 1.18 0 2.034-.839 2.034-2.03 0-1.111-.976-1.892-2.034-1.892z"/><path fill="#fff" fill-rule="evenodd" d="M33.946 27.33v1.936c0 .479-.035 1.001-.649 1.001s-.649-.522-.649-1V27.33h-.956v2.068c0 .473.02.941.386 1.297.307.303.79.41 1.22.41.429 0 .911-.107 1.219-.41.365-.356.385-.824.385-1.297V27.33h-.956z" clip-rule="evenodd"/><path stroke="#fff" stroke-miterlimit="3.864" stroke-width=".122" d="M33.946 27.33v1.936c0 .479-.035 1.001-.649 1.001s-.649-.522-.649-1V27.33h-.956v2.068c0 .473.02.941.386 1.297.307.303.79.41 1.22.41.429 0 .911-.107 1.219-.41.365-.356.385-.824.385-1.297V27.33h-.956z"/><path fill="#fff" fill-rule="evenodd" d="M49.718 28.8v-1.42h-.956v3.679h.956V29.55h1.38v1.508h.956v-3.68h-.956v1.42h-1.38z" clip-rule="evenodd"/><path stroke="#fff" stroke-miterlimit="3.864" stroke-width=".122" d="M49.718 28.8v-1.42h-.956v3.679h.956V29.55h1.38v1.508h.956v-3.68h-.956v1.42h-1.38z"/><path fill="#fff" fill-rule="evenodd" d="M57.254 31.059h.956v-2.254h.01l1.751 2.254h.957v-3.68h-.957v2.25h-.01l-1.751-2.25h-.956v3.68z" clip-rule="evenodd"/><path stroke="#fff" stroke-miterlimit="3.864" stroke-width=".122" d="M57.254 31.059h.956v-2.254h.01l1.751 2.254h.957v-3.68h-.957v2.25h-.01l-1.751-2.25h-.956v3.68z"/><path fill="#fff" fill-rule="evenodd" d="M68.358 27.38v1.937c0 .478-.034 1-.649 1-.614 0-.649-.522-.649-1V27.38h-.956v2.069c0 .473.02.94.386 1.297.308.303.79.41 1.22.41.429 0 .911-.107 1.219-.41.365-.356.385-.824.385-1.297v-2.07h-.956z" clip-rule="evenodd"/><path stroke="#fff" stroke-miterlimit="3.864" stroke-width=".122" d="M68.358 27.38v1.937c0 .478-.034 1-.649 1-.614 0-.649-.522-.649-1V27.38h-.956v2.069c0 .473.02.94.386 1.297.308.303.79.41 1.22.41.429 0 .911-.107 1.219-.41.365-.356.385-.824.385-1.297v-2.07h-.956z"/><path fill="#fff" fill-rule="evenodd" d="M84.066 27.585a2.509 2.509 0 0 0-1.15-.302c-.737 0-1.269.488-1.269 1.234 0 .712.394.867.995 1.039.205.058.58.15.58.42 0 .258-.24.37-.463.37-.327 0-.61-.17-.848-.38l-.41.77c.375.264.829.42 1.292.42.372 0 .757-.103 1.044-.346.293-.25.381-.625.381-.991 0-.595-.396-.854-.907-1.004l-.244-.075c-.166-.053-.425-.136-.425-.35 0-.205.234-.307.41-.307.233 0 .458.097.633.243l.38-.74z" clip-rule="evenodd"/><path stroke="#fff" stroke-miterlimit="3.864" stroke-width=".122" d="M84.066 27.585a2.509 2.509 0 0 0-1.15-.302c-.737 0-1.269.488-1.269 1.234 0 .712.394.867.995 1.039.205.058.58.15.58.42 0 .258-.24.37-.463.37-.327 0-.61-.17-.848-.38l-.41.77c.375.264.829.42 1.292.42.372 0 .757-.103 1.044-.346.293-.25.381-.625.381-.991 0-.595-.396-.854-.907-1.004l-.244-.075c-.166-.053-.425-.136-.425-.35 0-.205.234-.307.41-.307.233 0 .458.097.633.243l.38-.74z"/><path fill="#007550" d="M89.816 29.29h.22l.153-.854.407.92.417-.918.136.852h.218l-.267-1.52-.502 1.097-.486-1.098-.296 1.52z"/><path fill="#007550" fill-rule="evenodd" d="M92.713 27.952a.671.671 0 0 0-.38-.104.743.743 0 0 0-.736.73c0 .416.322.74.736.74a.75.75 0 0 0 .38-.107v-.256c-.136.115-.245.16-.376.16a.518.518 0 0 1-.526-.53c0-.297.23-.536.516-.536.143 0 .251.046.386.155v-.252z" clip-rule="evenodd"/></svg>