<svg xmlns="http://www.w3.org/2000/svg" width="133" height="32" fill="none"><path fill="#2790C3" fill-rule="evenodd" d="M102.599 13.947c-.397 2.604-2.385 2.604-4.308 2.604h-1.094l.767-4.86c.047-.295.3-.51.598-.51h.501c1.309 0 2.545 0 3.183.745.381.446.497 1.107.353 2.021zm-.837-6.791h-7.253c-.495 0-.918.36-.995.85l-2.932 18.596a.604.604 0 0 0 .597.698h3.72a.705.705 0 0 0 .697-.595l.832-5.272c.077-.49.5-.85.995-.85h2.295c4.777 0 7.534-2.312 8.254-6.894.325-2.004.013-3.578-.925-4.68-1.031-1.212-2.859-1.853-5.285-1.853z" clip-rule="evenodd"/><path fill="#27346A" fill-rule="evenodd" d="M50.874 13.947c-.396 2.604-2.385 2.604-4.307 2.604h-1.094l.767-4.86c.046-.295.3-.51.597-.51h.502c1.309 0 2.545 0 3.182.745.382.446.497 1.107.353 2.021zm-.837-6.791h-7.252c-.496 0-.918.36-.995.85l-2.933 18.596a.605.605 0 0 0 .597.698h3.463c.496 0 .918-.36.995-.85l.792-5.017c.077-.49.499-.85.995-.85h2.295c4.776 0 7.533-2.312 8.254-6.894.324-2.004.013-3.578-.925-4.68-1.032-1.212-2.86-1.853-5.286-1.853zm16.836 13.467c-.335 1.984-1.91 3.316-3.92 3.316-1.007 0-1.813-.324-2.331-.937-.514-.608-.707-1.475-.544-2.44.312-1.966 1.913-3.34 3.891-3.34.986 0 1.787.326 2.316.945.532.624.74 1.496.588 2.456zm4.84-6.759H68.24a.604.604 0 0 0-.597.51l-.153.971-.243-.352c-.751-1.091-2.427-1.456-4.101-1.456-3.837 0-7.114 2.908-7.752 6.985-.332 2.034.14 3.978 1.293 5.335 1.06 1.247 2.572 1.766 4.373 1.766 3.093 0 4.808-1.987 4.808-1.987l-.155.965c-.058.367.225.7.597.7h3.127c.496 0 .918-.361.995-.851l1.878-11.887a.604.604 0 0 0-.597-.699z" clip-rule="evenodd"/><path fill="#2790C3" fill-rule="evenodd" d="M118.599 20.623c-.336 1.984-1.911 3.316-3.92 3.316-1.007 0-1.813-.324-2.332-.937-.513-.608-.707-1.475-.544-2.44.313-1.966 1.913-3.34 3.892-3.34.986 0 1.787.326 2.315.945.532.624.741 1.496.589 2.456zm4.839-6.759h-3.472a.603.603 0 0 0-.597.51l-.153.971-.243-.352c-.752-1.091-2.428-1.456-4.102-1.456-3.836 0-7.114 2.908-7.751 6.985-.332 2.034.139 3.978 1.292 5.335 1.06 1.247 2.572 1.766 4.374 1.766 3.092 0 4.807-1.987 4.807-1.987l-.154.965c-.059.367.225.7.597.7h3.127c.496 0 .918-.361.995-.851l1.877-11.887a.604.604 0 0 0-.597-.699z" clip-rule="evenodd"/><mask id="a" width="133" height="32" x="0" y="0" maskUnits="userSpaceOnUse" style="mask-type:luminance"><path fill="#fff" d="M.21 32h131.872V0H.211v32z"/></mask><g mask="url(#a)"><path fill="#27346A" fill-rule="evenodd" d="M90.209 13.864h-3.49a1.01 1.01 0 0 0-.834.442l-4.815 7.091-2.04-6.814a1.007 1.007 0 0 0-.965-.719h-3.432a.605.605 0 0 0-.572.8l3.843 11.281-3.614 5.1a.605.605 0 0 0 .493.955h3.487c.33 0 .64-.162.828-.434l11.608-16.753a.605.605 0 0 0-.497-.949z" clip-rule="evenodd"/></g><mask id="b" width="133" height="32" x="0" y="0" maskUnits="userSpaceOnUse" style="mask-type:luminance"><path fill="#fff" d="M.21 32h131.872V0H.211v32z"/></mask><g mask="url(#b)"><path fill="#2790C3" fill-rule="evenodd" d="m127.531 7.667-2.977 18.935a.605.605 0 0 0 .597.698h2.994c.496 0 .918-.36.995-.85l2.935-18.595a.605.605 0 0 0-.597-.7h-3.35a.604.604 0 0 0-.597.511z" clip-rule="evenodd"/></g><mask id="c" width="133" height="32" x="0" y="0" maskUnits="userSpaceOnUse" style="mask-type:luminance"><path fill="#fff" d="M.21 32h131.872V0H.211v32z"/></mask><g mask="url(#c)"><path fill="#27346A" fill-rule="evenodd" d="m13.93 30.682.975-6.182.063-.342a1.27 1.27 0 0 1 1.254-1.071h.774c1.29 0 2.476-.138 3.524-.41 1.118-.29 2.112-.741 2.955-1.34a7.984 7.984 0 0 0 2.232-2.442c.619-1.039 1.074-2.289 1.351-3.716.246-1.26.292-2.388.137-3.353-.163-1.02-.556-1.89-1.167-2.586a4.93 4.93 0 0 0-1.409-1.087l-.013-.008V8.13c.196-1.258.189-2.307-.023-3.21-.213-.905-.645-1.72-1.32-2.49C21.862.834 19.315.025 15.694.025H5.749a1.4 1.4 0 0 0-1.38 1.18L.226 27.467a.827.827 0 0 0 .818.958h6.17l-.005.029-.424 2.687a.722.722 0 0 0 .713.834h5.175a1.22 1.22 0 0 0 1.205-1.03l.051-.263z" clip-rule="evenodd"/></g><mask id="d" width="133" height="32" x="0" y="0" maskUnits="userSpaceOnUse" style="mask-type:luminance"><path fill="#fff" d="M.21 32h131.872V0H.211v32z"/></mask><g mask="url(#d)"><path fill="#27346A" fill-rule="evenodd" d="M10.386 8.163a1.244 1.244 0 0 1 1.229-1.051h7.796c.924 0 1.785.06 2.572.187.225.036.444.078.657.125a9.523 9.523 0 0 1 .914.25c.386.13.746.28 1.077.456.39-2.49-.002-4.183-1.349-5.717C21.8.723 19.122 0 15.696 0H5.75c-.7 0-1.296.51-1.406 1.201L.203 27.463a.854.854 0 0 0 .843.986h6.14l3.2-20.286z" clip-rule="evenodd"/></g><path fill="#2790C3" fill-rule="evenodd" d="M24.63 8.13c-.03.19-.063.383-.102.582-1.311 6.735-5.798 9.063-11.53 9.063H10.08c-.7 0-1.291.51-1.4 1.201L6.76 31.137A.747.747 0 0 0 7.5 32h5.175c.613 0 1.134-.445 1.23-1.05l.05-.264.976-6.182.062-.342a1.245 1.245 0 0 1 1.23-1.05h.774c5.014 0 8.94-2.038 10.087-7.929.48-2.461.231-4.516-1.036-5.96A4.93 4.93 0 0 0 24.63 8.13z" clip-rule="evenodd"/><path fill="#1F264F" fill-rule="evenodd" d="M23.258 7.583a9.517 9.517 0 0 0-.62-.159 11.32 11.32 0 0 0-.656-.125 16.265 16.265 0 0 0-2.572-.187h-7.796a1.244 1.244 0 0 0-1.23 1.051L8.729 18.669l-.048.307c.109-.692.7-1.201 1.4-1.201H13c5.73 0 10.218-2.329 11.53-9.063.039-.199.072-.392.101-.582a7.048 7.048 0 0 0-1.372-.547z" clip-rule="evenodd"/></svg>