<svg xmlns="http://www.w3.org/2000/svg" width="111" height="32" fill="none"><path fill="#FC8019" d="M11.79 32a.869.869 0 0 1-.067-.055 84.84 84.84 0 0 1-5.2-7.296c-.728-1.22-1.202-2.172-1.11-2.419.237-.64 4.472-.99 5.777-.41.396.176.386.41.386.545 0 .586-.029 2.159-.029 2.159a.589.589 0 1 0 1.178-.003l-.006-3.918c0-.34-.373-.425-.442-.438-.681-.004-2.064-.008-3.548-.008-3.276 0-4.008.134-4.564-.23C2.959 19.14.988 13.825.942 10.836c-.066-4.218 2.433-7.87 5.952-9.679C8.364.417 10.024 0 11.78 0c5.57 0 10.156 4.204 10.766 9.613 0 .004 0 .01.002.014.112 1.307-7.095 1.585-8.52 1.205-.219-.059-.275-.282-.275-.379-.001-.994-.008-3.792-.008-3.792a.59.59 0 0 0-1.18.003l.013 5.154a.44.44 0 0 0 .357.427l4.472-.002c2.387 0 3.389.277 4.056.784.444.339.615.986.465 1.828C20.59 22.34 12.108 31.612 11.79 32zm22.996-17.47c2.14.917 3.465 1.935 3.465 4.168 0 2.28-1.727 3.754-4.4 3.754-2.167 0-3.906-.981-4.772-2.693l-.14-.276 2.547-1.476.167.273c.573.938 1.214 1.337 2.144 1.337.802 0 1.34-.355 1.34-.884 0-.587-.39-.806-1.594-1.334l-.613-.263c-1.634-.696-3.148-1.664-3.148-4.009 0-2.107 1.614-3.578 3.927-3.578 1.752 0 2.953.678 3.78 2.133l.153.27-2.468 1.587-.17-.305c-.412-.738-.8-.886-1.295-.886-.516 0-.848.285-.848.726 0 .508.245.73 1.312 1.193l.613.264zm18.03.432 1.798-5.014H57.7l-4.574 12.71h-.685l-2.775-5.952a12.036 12.036 0 0 1-.376-.922c-.118.311-.254.65-.383.923l-2.883 5.952h-.681l-4.647-12.71h3.297l1.817 5.013c.117.32.235.71.34 1.072.123-.374.272-.777.427-1.102l2.387-5.088h.66l2.426 5.089c.154.324.303.728.426 1.101.105-.362.225-.752.34-1.072zm8.483 7.332V9.689h3.115v12.605H61.3zm13.329-4.235v-2.817h5.784v5.65l-.12.098c-.662.543-2.416 1.462-4.793 1.462-4.009 0-6.807-2.656-6.807-6.46 0-3.734 2.7-6.443 6.421-6.443 2.047 0 3.547.576 4.585 1.763l.203.232-2.123 2.102-.231-.237c-.593-.612-1.207-.99-2.434-.99-1.906 0-3.237 1.469-3.237 3.573 0 2.192 1.422 3.608 3.623 3.608.73 0 1.491-.126 2.009-.327V18.06h-2.88zm15.785 0v-2.817h5.784v5.65l-.12.098c-.662.543-2.416 1.462-4.792 1.462-4.009 0-6.808-2.656-6.808-6.46 0-3.734 2.701-6.443 6.421-6.443 2.048 0 3.547.576 4.585 1.763l.204.232-2.123 2.102-.231-.237c-.593-.612-1.208-.99-2.435-.99-1.905 0-3.237 1.469-3.237 3.573 0 2.192 1.423 3.608 3.624 3.608.73 0 1.49-.126 2.008-.327V18.06h-2.88zm17.198-8.37h3.255l-4.468 8.388v4.217h-3.132v-4.038l-4.76-8.567h3.473l2.2 4.019c.237.437.484 1.015.671 1.484.178-.465.415-1.038.65-1.48l2.111-4.023z"/></svg>