<svg xmlns="http://www.w3.org/2000/svg" width="202" height="30" fill="none"><path fill="#08BD80" d="M44.156 15.619c0 3.808 1.449 6.502 5.758 6.502 3.084 0 4.83-1.904 4.83-1.904l.26.934c.111.36.26.61.669.61h.706c.371 0 .706-.323.706-.682V8.075c0-.36-.335-.682-.706-.682h-1.152c-.372 0-.706.323-.706.682v9.591s-1.597 2.048-4.42 2.048c-2.081 0-3.344-1.33-3.344-4.06V8.076c0-.36-.335-.682-.706-.682h-1.189c-.372 0-.706.323-.706.682v7.544z"/><path fill="#2D81F7" fill-rule="evenodd" d="M83.243 12.638c-3.827 0-5.944 2.047-5.944 4.777 0 2.874 1.969 4.706 4.57 4.706 2.303 0 3.826-1.113 4.606-1.868l.297.97c.111.324.223.539.632.539h.706c.371 0 .705-.323.705-.683v-7.974c0-4.203-.928-6.071-4.718-6.071-2.786 0-4.94.826-5.163.934-.335.143-.558.359-.41.79l.298.898c.111.323.334.503.706.36a13.434 13.434 0 0 1 4.458-.791c2.117 0 2.452 1.221 2.415 3.88 0 0-1.56-.467-3.158-.467zm-.967 7.328c-1.597 0-2.6-1.114-2.6-2.55 0-1.869 1.486-2.874 3.566-2.874 1.635 0 2.675.323 3.12.574v2.838c-.63.898-2.228 2.012-4.086 2.012z" clip-rule="evenodd"/><path fill="#2D81F7" d="M92.277 14.614c0 4.31 3.492 7.507 7.616 7.507 2.526 0 4.57-1.293 5.684-3.017.223-.36.111-.755-.26-1.006l-.409-.287c-.408-.288-.668-.36-1.114.071-.855.79-1.709 1.868-3.938 1.868-2.786 0-4.904-2.299-4.904-5.172 0-2.874 2.155-5.102 4.941-5.102a4.65 4.65 0 0 1 3.418 1.51c.334.287.52.646 1.077.143l.706-.575c.334-.251.409-.682.149-1.006-1.338-1.652-3.084-2.514-5.313-2.514-4.05 0-7.653 3.34-7.653 7.58z"/><path fill="#2D81F7" fill-rule="evenodd" d="M115.092 12.638c-3.826 0-5.944 2.047-5.944 4.777 0 2.874 1.969 4.706 4.57 4.706 2.303 0 3.826-1.113 4.606-1.868l.298.97c.111.324.223.539.631.539h.706c.372 0 .706-.323.706-.683v-7.974c0-4.203-.929-6.071-4.718-6.071-2.786 0-4.941.826-5.164.934-.334.143-.557.359-.409.79l.298.898c.111.323.334.503.705.36a13.44 13.44 0 0 1 4.458-.791c2.118 0 2.452 1.221 2.415 3.88 0 0-1.56-.467-3.158-.467zm-.967 7.328c-1.597 0-2.6-1.114-2.6-2.55 0-1.869 1.486-2.874 3.566-2.874 1.634 0 2.675.323 3.12.574v2.838c-.631.898-2.229 2.012-4.086 2.012zm17.13-12.933c-4.457 0-7.132 3.305-7.132 7.508 0 4.131 2.972 7.58 6.761 7.58 2.786 0 4.57-1.904 4.57-1.904l.223.97c.073.323.297.574.631.574h.78c.373 0 .706-.323.706-.682V.683c0-.36-.333-.683-.706-.683h-1.151c-.372 0-.707.323-.707.683v7.284s-1.522-.934-3.975-.934zm-.112 12.824c-2.711 0-4.42-2.478-4.42-5.28 0-2.874 1.634-5.137 4.866-5.137 2.044 0 3.604.862 3.604.862v7.184s-1.375 2.371-4.05 2.371zm17.39-12.823c-4.495 0-7.281 3.484-7.281 7.544 0 4.13 2.786 7.543 7.281 7.543 2.564 0 4.57-.97 5.462-1.652.557-.395.408-.61.148-.934l-.316-.413c-.101-.135-.204-.27-.315-.413-.271-.36-.481-.243-.91-.002l-.13.073c-.855.503-2.117 1.078-3.679 1.078-2.637 0-4.829-2.263-4.977-4.67h10.699a.673.673 0 0 0 .668-.61c.038-.252.075-.719.075-.97 0-3.772-2.823-6.574-6.725-6.574zm4.159 6.143h-8.841c.26-2.228 2.192-3.952 4.681-3.952 2.266 0 4.049 1.868 4.16 3.952z" clip-rule="evenodd"/><path fill="#2D81F7" d="M158.719 21.08c0 .359.334.682.706.682h1.151c.372 0 .707-.323.707-.683v-9.59s1.596-2.048 4.235-2.048c2.265 0 3.528 1.329 3.528 4.059v7.58c0 .359.334.682.707.682h1.188c.372 0 .705-.323.705-.683V13.5c0-.754-.073-1.436-.185-2.047.52-.467 2.118-2.011 4.533-2.011 2.154 0 3.342 1.365 3.342 4.059v7.58c0 .359.335.682.707.682h1.188c.372 0 .707-.323.707-.683V13.5c0-3.735-1.449-6.465-5.759-6.465-2.971 0-5.349 2.191-5.535 2.335-.966-1.51-2.564-2.335-4.755-2.335-3.084 0-4.83 1.904-4.83 1.904l-.334-1.114c-.075-.287-.26-.431-.595-.431h-.705c-.372 0-.706.323-.706.682V21.08zm33.673.646-3.009 7.376c-.26.503.037.898.594.898h1.375c.26 0 .52-.215.631-.431l9.659-21.35c.26-.467 0-.826-.558-.826h-1.411c-.26 0-.52.18-.631.395l-5.201 10.992-5.536-10.992a.71.71 0 0 0-.632-.395h-1.634c-.557 0-.78.323-.557.79l6.91 13.543z"/><path fill="#08BD80" d="M60.541 21.08c0 .359.334.682.706.682h1.151c.372 0 .706-.323.706-.683v-9.59S65.11 9.44 67.897 9.44c2.08 0 3.343 1.329 3.343 4.059v7.58c0 .359.335.682.706.682h1.189c.371 0 .706-.323.706-.683V13.5c0-3.735-1.45-6.465-5.759-6.465-3.083 0-5.2 1.904-5.2 1.904l-.335-1.114c-.074-.287-.26-.431-.594-.431h-.706c-.372 0-.706.323-.706.682V21.08z"/><path fill="#2D81F7" d="M.932 2.79c1.38 8.468 8.969 14.945 18.123 14.945 9.061 0 16.589-6.346 18.079-14.69.19-.782.27-1.408.245-1.944 0-.614-.455-1.09-1.086-1.09H1.834C1.201.01.746.485.745 1.1H.742l.003.04c-.017.467.044 1.002.187 1.65z"/><path fill="#08BD80" d="M28.062 28.583c-.69-4.234-4.485-7.473-9.062-7.473-4.53 0-8.294 3.174-9.04 7.345-.095.392-.134.704-.122.972 0 .307.228.546.543.546h17.23a.531.531 0 0 0 .544-.545h.002l-.002-.02a3.303 3.303 0 0 0-.093-.825z"/></svg>