<svg xmlns="http://www.w3.org/2000/svg" width="101" height="40" fill="none"><path fill="#7EC45F" d="M78.148 3.88a1.94 1.94 0 1 0 0-3.88 1.94 1.94 0 0 0 0 3.88z"/><path fill="#355493" d="M93.13 13.17a3.233 3.233 0 1 0 0-6.468 3.233 3.233 0 0 0 0 6.467z"/><path fill="#FFCD2E" d="M78.148 40a1.94 1.94 0 1 0 0-3.88 1.94 1.94 0 0 0 0 3.88z"/><path fill="#BE266A" d="M93.13 33.3a3.233 3.233 0 1 0 0-6.467 3.233 3.233 0 0 0 0 6.467z"/><path fill="#3498B3" d="M88.484 4.432a2.457 2.457 0 1 1-4.746-1.273 2.457 2.457 0 0 1 4.746 1.273z"/><path fill="#F57F2A" d="M88.483 36.84a2.457 2.457 0 1 1-4.749-1.27 2.457 2.457 0 0 1 4.749 1.27z"/><path fill="#746FA7" d="M99.742 20.998a3.68 3.68 0 1 0-7.095-1.953 3.68 3.68 0 0 0 7.095 1.953z"/><path fill="#351A55" d="M29.1 11.91h4.216v16.12h-4.217V11.91zm2.562-7.201a2.423 2.423 0 1 0-1.25 4.683 2.423 2.423 0 0 0 1.25-4.683zM46.23 28.358a7.24 7.24 0 0 1-2.954-.582 5.057 5.057 0 0 1-2.12-1.718v10.007h-4.094V11.911h4.059v2.239a5.706 5.706 0 0 1 2.12-1.88 6.29 6.29 0 0 1 2.955-.686 7.558 7.558 0 0 1 2.925.582 7.37 7.37 0 0 1 2.477 1.686 8.327 8.327 0 0 1 1.715 2.663 8.96 8.96 0 0 1 .642 3.463 8.785 8.785 0 0 1-.655 3.477 8.62 8.62 0 0 1-1.733 2.641 7.425 7.425 0 0 1-5.342 2.268l.005-.006zm-.837-3.88a4.214 4.214 0 0 0 1.733-.36 4.633 4.633 0 0 0 1.416-.97c.407-.41.728-.896.948-1.43a4.79 4.79 0 0 0 0-3.551 4.39 4.39 0 0 0-.957-1.432 4.679 4.679 0 0 0-1.416-.972 4.25 4.25 0 0 0-1.733-.357 4.413 4.413 0 0 0-4.132 2.776 4.61 4.61 0 0 0 .939 4.97 4.438 4.438 0 0 0 3.193 1.33l.009-.004zm11.54-12.568h4.06v2.48a4.192 4.192 0 0 1 1.744-2.104 5.253 5.253 0 0 1 2.703-.666 6.054 6.054 0 0 1 2.714.623l-1.492 4.062a2.87 2.87 0 0 0-.887-.404 4.51 4.51 0 0 0-1.252-.165c-1.056 0-1.903.296-2.539.888-.636.592-.954 1.558-.954 2.899v8.506h-4.101l.004-16.119zm20.335 16.448a8.576 8.576 0 0 1-3.373-.666 8.331 8.331 0 0 1-4.492-4.477 8.283 8.283 0 0 1-.641-3.253 8.393 8.393 0 0 1 .641-3.269 8.107 8.107 0 0 1 1.791-2.663 8.722 8.722 0 0 1 12.148 0 8.321 8.321 0 0 1 2.462 5.94 8.141 8.141 0 0 1-.655 3.254 8.685 8.685 0 0 1-1.791 2.663 8.178 8.178 0 0 1-2.703 1.807 8.675 8.675 0 0 1-3.389.664h.002zm.03-3.91a4.233 4.233 0 0 0 1.73-.358c.524-.23 1-.553 1.405-.957.403-.405.722-.887.939-1.415a4.72 4.72 0 0 0 0-3.538 4.345 4.345 0 0 0-.939-1.434 4.6 4.6 0 0 0-1.405-.954 4.348 4.348 0 0 0-3.462 0 4.618 4.618 0 0 0-1.402.954 4.362 4.362 0 0 0-.94 1.434 4.72 4.72 0 0 0 0 3.538 4.36 4.36 0 0 0 .94 1.415c.404.404.88.728 1.402.957.545.24 1.134.36 1.729.357h.002zM0 11.905h4.174L7.426 22.19l3.815-10.284h3.668l3.757 10.284 3.37-10.284h4.174l-5.458 16.1h-3.874l-3.849-10.494-3.875 10.495H5.218L0 11.907z"/></svg>