<svg xmlns="http://www.w3.org/2000/svg" width="114" height="32" fill="none"><path fill="#E23744" d="M.64 0h112.705v32H.641V0z"/><path fill="#fff" d="m27.381 11.617-.078 2.003-6.531 5.68c2.728 0 4.458-.022 5.455-.066-.288 1.078-.524 1.959-.76 3.28-1.312-.089-3.358-.11-5.404-.11-2.282 0-4.276.021-5.875.11l.053-2.026 6.53-5.657c-2.858 0-3.908.022-5.088.044.262-1.013.446-2.135.63-3.258 2.071.065 2.884.087 5.586.087 2.492 0 3.908-.022 5.482-.088zm7.424-.596c-4.25 0-7.502 3.039-7.502 6.672 0 2.73 1.967 4.821 5.796 4.821 4.276 0 7.502-3.038 7.502-6.693 0-2.707-1.915-4.8-5.796-4.8zm-1.286 8.573c-.944 0-1.495-.684-1.495-2.026 0-2.004 1.023-3.61 2.282-3.61.918 0 1.469.66 1.469 2.025 0 1.981-.996 3.61-2.256 3.61zM94.88 10.87c-4.305 0-7.6 3.078-7.6 6.757 0 2.767 1.993 4.886 5.873 4.886 4.331 0 7.6-3.078 7.6-6.78 0-2.744-1.939-4.863-5.873-4.863zm-1.384 8.711c-.945 0-1.495-.683-1.495-2.026 0-2.003 1.024-3.61 2.283-3.61.917 0 1.469.66 1.469 2.025 0 1.982-.998 3.611-2.257 3.611zM62.66 14.985c.34-1.871.158-3.566-2.439-3.566-1.889 0-3.934 1.277-5.377 3.412.315-1.762.13-3.412-2.44-3.412-1.94 0-4.039 1.342-5.482 3.566.368-1.453.29-3.105.184-3.457a40.132 40.132 0 0 1-4.642.352c.052 1.013-.027 2.333-.263 3.589l-.603 3.302c-.236 1.3-.499 2.796-.761 3.743h4.879c.026-.573.21-1.475.341-2.268l.42-2.267c.34-1.476 1.809-3.214 2.937-3.214.656 0 .63.506.446 1.453l-.472 2.553c-.237 1.3-.498 2.796-.761 3.743h4.93c.027-.573.185-1.475.315-2.268l.42-2.267c.34-1.476 1.81-3.214 2.938-3.214.656 0 .63.484.524 1.145l-1.178 6.604h4.5l1.584-7.53zm23.563 4.073-.524 2.598c-.814.352-2.335.858-4.092.858-2.99 0-3.593-1.277-3.122-3.985l.761-4.359h-1.471l.415-2.821 1.607-.063.604-2.047 4.536-1.365-.576 3.413h3.121c-.105.351-.473 2.29-.576 2.883h-3.044l-.682 4.03c-.184 1.034-.079 1.408.812 1.408.658 0 1.627-.309 2.231-.55zm-17.21 1.403c1.65-.164 2.787-1.437 3.06-2.708l.047-.34c-.71-.127-1.736-.224-2.73-.127-.947.093-1.735.407-2.159.863-.32.328-.48.72-.409 1.187.108.7 1.075 1.234 2.19 1.125zm-1.406 2.012c-2.33.23-3.866-.51-4.326-2.194-.29-1.06.112-2.266.814-2.986.94-.942 2.472-1.546 4.341-1.729a15.507 15.507 0 0 1 3.958.104l.049-.163c.034-.26.068-.52.02-.83-.122-.798-.91-1.274-2.852-1.083-1.31.13-2.557.508-3.526.939l-.941-2.277c1.312-.602 2.966-1.061 4.859-1.247 3.616-.355 6.157.567 6.482 2.688a5.57 5.57 0 0 1 .008 1.704c-.464 2.622-.762 4.595-.892 5.918-.021.205-.02.556.003 1.055l-4.487-.003c.096-.207.181-.487.257-.838a6.15 6.15 0 0 0 .11-.877c-.949 1.041-2.252 1.66-3.877 1.82z"/></svg>